<?xml version="1.0" encoding="UTF-8" standalone="no"?>
<svg
   xmlns:dc="http://purl.org/dc/elements/1.1/"
   xmlns:cc="http://creativecommons.org/ns#"
   xmlns:rdf="http://www.w3.org/1999/02/22-rdf-syntax-ns#"
   xmlns:svg="http://www.w3.org/2000/svg"
   xmlns="http://www.w3.org/2000/svg"
   id="svg1427"
   version="1.1"
   viewBox="0 0 26.458333 26.458334"
   height="100"
   width="100">
  <defs
     id="defs1421" />
  <metadata
     id="metadata1424">
    <rdf:RDF>
      <cc:Work
         rdf:about="">
        <dc:format>image/svg+xml</dc:format>
        <dc:type
           rdf:resource="http://purl.org/dc/dcmitype/StillImage" />
        <dc:title></dc:title>
      </cc:Work>
    </rdf:RDF>
  </metadata>
  <g
     transform="translate(0,-270.54165)"
     id="layer1">
    <path
       transform="matrix(0.26458333,0,0,0.26458333,0,270.54165)"
       id="rect2559"
       d="m 10.824219,7.1933594 c -3.6430425,0 -6.5761721,2.9331296 -6.5761721,6.5761716 V 72.875 c 0,3.643042 2.9331296,6.576172 6.5761721,6.576172 h 19.359375 c 2.558911,1.720703 2.825825,3.441406 0,5.162109 H 9.6386719 c -2.2763183,0 -4.109375,1.833057 -4.109375,4.109375 v 1.615235 c 0,2.276318 1.8330567,4.109375 4.109375,4.109375 H 91.816406 c 2.276319,0 4.109375,-1.833057 4.109375,-4.109375 v -1.615235 c 0,-2.276318 -1.833056,-4.109375 -4.109375,-4.109375 H 70.462891 c -4.073157,-2.381257 -1.493535,-3.692392 0,-5.162109 h 19.425781 c 3.643042,0 6.576172,-2.93313 6.576172,-6.576172 V 13.769531 c 0,-3.643042 -2.93313,-6.5761716 -6.576172,-6.5761716 z M 18,17.673828 h 63.957031 c 2.586247,0 4.667969,2.081722 4.667969,4.667969 v 41.960937 c 0,2.586247 -2.081722,4.667969 -4.667969,4.667969 H 18 c -2.586247,0 -4.667969,-2.081722 -4.667969,-4.667969 V 22.341797 c 0,-2.586247 2.081722,-4.667969 4.667969,-4.667969 z m 31.275391,4.736328 c -2.319213,0 -4.185547,2.028596 -4.185547,4.548828 v 15.367188 c 0,2.520232 1.866334,4.548828 4.185547,4.548828 h 2.609375 c 2.319212,0 4.1875,-2.028596 4.1875,-4.548828 V 26.958984 c 0,-2.520232 -1.868288,-4.548828 -4.1875,-4.548828 z m 0,30 c -2.319213,0 -4.185547,2.131014 -4.185547,4.777344 v 1.25 c 0,2.64633 1.866334,4.777344 4.185547,4.777344 h 2.609375 c 2.319212,0 4.1875,-2.131014 4.1875,-4.777344 v -1.25 c 0,-2.64633 -1.868288,-4.777344 -4.1875,-4.777344 z"
       style="opacity:1;fill:#000000;fill-opacity:1;stroke:none;stroke-width:4.3071003;stroke-linecap:round;stroke-linejoin:round;stroke-miterlimit:4;stroke-dasharray:none;stroke-dashoffset:0;stroke-opacity:1" />
  </g>
</svg>
