<?xml version="1.0" encoding="UTF-8" standalone="no"?>
<svg
   xmlns:dc="http://purl.org/dc/elements/1.1/"
   xmlns:cc="http://creativecommons.org/ns#"
   xmlns:rdf="http://www.w3.org/1999/02/22-rdf-syntax-ns#"
   xmlns:svg="http://www.w3.org/2000/svg"
   xmlns="http://www.w3.org/2000/svg"
   id="svg8"
   version="1.1"
   viewBox="0 0 26.458333 26.458334"
   height="100"
   width="100">
  <defs
     id="defs2" />
  <metadata
     id="metadata5">
    <rdf:RDF>
      <cc:Work
         rdf:about="">
        <dc:format>image/svg+xml</dc:format>
        <dc:type
           rdf:resource="http://purl.org/dc/dcmitype/StillImage" />
        <dc:title></dc:title>
      </cc:Work>
    </rdf:RDF>
  </metadata>
  <g
     transform="translate(0,-270.54165)"
     id="layer1">
    <path
       transform="matrix(0.26458333,0,0,0.26458333,0,270.54165)"
       id="path815"
       d="M 49.822266 3.6074219 A 46.07143 46.07143 0 0 0 3.75 49.677734 A 46.07143 46.07143 0 0 0 49.822266 95.75 A 46.07143 46.07143 0 0 0 95.892578 49.677734 A 46.07143 46.07143 0 0 0 49.822266 3.6074219 z M 49.683594 13.761719 C 54.129807 13.665303 58.621638 14.562875 62.755859 16.476562 C 72.205498 20.850723 78.060756 30.15938 76.748047 39.917969 C 75.43533 49.676558 67.472598 57.402535 57.199219 59.75 C 56.65045 59.87548 55.939058 59.861053 55.335938 60.074219 L 55.335938 68.626953 L 45.669922 68.626953 L 45.669922 56.412109 L 50.140625 51.943359 C 57.677283 51.934742 67.699272 46.602816 68.1875 38.765625 C 68.5466 33.001203 65.68143 27.339926 59.132812 24.308594 C 52.584189 21.277299 44.259417 22.027851 38.650391 26.039062 C 33.041368 30.050275 31.169343 35.965769 33.283203 41.527344 L 25.210938 44.591797 C 21.692549 35.334827 25.276752 24.982666 33.628906 19.009766 C 38.327001 15.649955 43.967028 13.885687 49.683594 13.761719 z M 50.949219 75.363281 A 7.4723093 5.8651663 0 0 1 58.421875 81.228516 A 7.4723093 5.8651663 0 0 1 50.949219 87.09375 A 7.4723093 5.8651663 0 0 1 43.476562 81.228516 A 7.4723093 5.8651663 0 0 1 50.949219 75.363281 z "
       style="opacity:1;fill:#000000;fill-opacity:1;stroke:none;stroke-width:5.6069293;stroke-linecap:square;stroke-linejoin:bevel;stroke-miterlimit:4;stroke-dasharray:none;stroke-dashoffset:0;stroke-opacity:1" />
  </g>
</svg>
