<?xml version="1.0" encoding="UTF-8" standalone="no"?>
<svg
   xmlns:dc="http://purl.org/dc/elements/1.1/"
   xmlns:cc="http://creativecommons.org/ns#"
   xmlns:rdf="http://www.w3.org/1999/02/22-rdf-syntax-ns#"
   xmlns:svg="http://www.w3.org/2000/svg"
   xmlns="http://www.w3.org/2000/svg"
   id="svg831"
   version="1.1"
   viewBox="0 0 26.458332 26.458334"
   height="100"
   width="100">
  <defs
     id="defs825" />
  <metadata
     id="metadata828">
    <rdf:RDF>
      <cc:Work
         rdf:about="">
        <dc:format>image/svg+xml</dc:format>
        <dc:type
           rdf:resource="http://purl.org/dc/dcmitype/StillImage" />
        <dc:title></dc:title>
      </cc:Work>
    </rdf:RDF>
  </metadata>
  <g
     transform="translate(0,-270.54165)"
     id="layer1">
    <path
       id="path1378"
       transform="matrix(0.26458333,0,0,0.26458333,0,270.54165)"
       d="M 48.044922 3.53125 A 40.090426 40.090426 0 0 0 7.9550781 43.621094 A 40.090426 40.090426 0 0 0 48.044922 83.710938 A 40.090426 40.090426 0 0 0 70.068359 77.085938 L 64.589844 62.238281 L 79.410156 68.585938 A 40.090426 40.090426 0 0 0 88.136719 43.621094 A 40.090426 40.090426 0 0 0 48.044922 3.53125 z M 79.410156 68.585938 A 40.090426 40.090426 0 0 1 70.068359 77.085938 L 77.080078 96.087891 L 81.474609 85.773438 L 93.261719 97.828125 L 99.376953 90.193359 L 87.279297 80.728516 L 99.058594 77.001953 L 79.410156 68.585938 z M 45.076172 10.630859 C 51.657863 10.681463 58.73619 13.929829 64.671875 22.644531 C 67.270693 26.460116 68.482768 32.670444 68.113281 39.498047 C 67.743802 46.325612 65.719039 53.765164 61.322266 59.791016 A 1.421863 1.421863 0 1 1 59.025391 58.115234 C 61.547696 54.658365 62.993178 50.602572 63.986328 46.474609 A 1.421863 1.421863 0 0 1 63.912109 46.591797 C 51.806525 63.834304 34.056628 66.279206 23.230469 59.599609 C 17.817389 56.259792 14.163118 50.583968 13.988281 43.632812 C 13.813444 36.68162 17.060147 28.572144 24.943359 20.128906 C 28.674107 16.133114 34.969743 11.730947 42.291016 10.796875 C 43.206175 10.680111 44.13593 10.62363 45.076172 10.630859 z M 45.072266 13.464844 C 44.25858 13.466282 43.451097 13.523094 42.652344 13.625 C 36.262323 14.440282 30.355558 18.495221 27.017578 22.070312 C 19.488011 30.134804 16.678923 37.556731 16.830078 43.566406 C 16.981234 49.576044 20.033071 54.29213 24.722656 57.185547 C 32.935856 62.252948 46.116202 60.914631 56.980469 49.728516 C 53.763626 51.213832 49.718155 53.551168 47.783203 53.597656 C 46.133122 53.63719 44.633936 52.997086 43.892578 51.78125 C 43.151205 50.565414 43.151506 49.156966 43.382812 47.677734 C 43.631418 46.087876 44.649107 44.081731 45.384766 42.228516 C 44.251573 43.628226 43.262967 45.146052 42.025391 46.392578 C 39.369392 49.06769 36.504319 51.281471 33.447266 52.453125 C 30.390212 53.624816 27.051228 53.666807 24.005859 51.921875 C 21.79073 50.652634 20.757306 48.336643 20.816406 45.935547 C 20.875508 43.534489 21.812603 40.959867 23.251953 38.294922 C 26.130653 32.965032 31.101872 27.278965 36.214844 23.058594 C 39.79073 20.106972 42.941462 18.597768 45.751953 18.1875 C 48.562444 17.777194 51.001903 18.544254 52.802734 19.943359 C 56.404401 22.741608 57.713346 27.584083 57.261719 31.105469 A 1.421863 1.421863 0 1 1 54.441406 30.744141 C 54.494698 30.328582 54.256987 29.699627 54.220703 29.193359 C 53.01099 32.018518 51.282321 35.391186 49.6875 38.759766 C 48.006619 42.310103 46.546253 45.826921 46.1875 48.121094 C 46.008161 49.26818 46.150411 50.022735 46.322266 50.304688 C 46.494106 50.586412 46.675805 50.782316 47.716797 50.755859 C 49.79878 50.70597 54.488375 49.000469 62.023438 44.554688 A 1.421863 1.421863 0 0 1 64.148438 45.566406 C 64.597747 43.478557 65.167057 41.382049 65.277344 39.34375 C 65.622248 32.970333 64.304728 27.164406 62.318359 24.248047 C 56.774971 16.109307 50.768063 13.454778 45.072266 13.464844 z M 47.644531 20.917969 C 47.184872 20.897214 46.693743 20.922992 46.166016 21 C 44.055104 21.308145 41.331642 22.521282 38.023438 25.251953 C 33.185298 29.245478 28.379889 34.788128 25.755859 39.646484 C 24.443845 42.075662 23.699423 44.335133 23.658203 46.009766 C 23.616982 47.684436 24.062274 48.676899 25.423828 49.457031 C 27.711563 50.767696 29.949653 50.744679 32.427734 49.794922 C 34.905816 48.845127 37.527542 46.884848 40.009766 44.384766 C 44.974209 39.384526 49.389921 32.295209 51.886719 27.480469 A 1.421863 1.421863 0 0 1 53.894531 26.925781 C 53.35794 25.099665 52.492009 23.299626 51.060547 22.1875 C 50.118597 21.455736 49.02351 20.980234 47.644531 20.917969 z "
       style="opacity:1;fill:#000000;fill-opacity:1;stroke:none;stroke-width:1.00157475;stroke-linecap:square;stroke-linejoin:round;stroke-miterlimit:4;stroke-dasharray:none;stroke-dashoffset:0;stroke-opacity:1" />
  </g>
</svg>
