<?xml version="1.0" encoding="UTF-8" standalone="no"?>
<svg
   xmlns:dc="http://purl.org/dc/elements/1.1/"
   xmlns:cc="http://creativecommons.org/ns#"
   xmlns:rdf="http://www.w3.org/1999/02/22-rdf-syntax-ns#"
   xmlns:svg="http://www.w3.org/2000/svg"
   xmlns="http://www.w3.org/2000/svg"
   id="svg3219"
   version="1.1"
   viewBox="0 0 26.458333 26.458334"
   height="100"
   width="100">
  <defs
     id="defs3213" />
  <metadata
     id="metadata3216">
    <rdf:RDF>
      <cc:Work
         rdf:about="">
        <dc:format>image/svg+xml</dc:format>
        <dc:type
           rdf:resource="http://purl.org/dc/dcmitype/StillImage" />
        <dc:title></dc:title>
      </cc:Work>
    </rdf:RDF>
  </metadata>
  <g
     transform="translate(0,-270.54165)"
     id="layer1">
    <path
       id="path4315"
       transform="matrix(0.26458333,0,0,0.26458333,0,270.54165)"
       d="M 49.820312 1.8574219 C 23.152898 1.8574219 1.4316406 23.586505 1.4316406 50.253906 C 1.4316406 76.921308 23.152898 98.642578 49.820312 98.642578 C 76.487725 98.642578 98.216797 76.921308 98.216797 50.253906 C 98.216797 23.586505 76.487725 1.8574219 49.820312 1.8574219 z M 49.820312 11.859375 C 71.083322 11.859375 88.212891 28.990889 88.212891 50.253906 C 88.212891 71.516924 71.083322 88.638672 49.820312 88.638672 C 28.557299 88.638672 11.427734 71.516924 11.427734 50.253906 C 11.427734 28.990889 28.557299 11.859375 49.820312 11.859375 z M 77.314453 28.193359 L 71.294922 28.291016 L 47.878906 49.507812 L 29.490234 36.412109 L 22.177734 37.158203 L 24.300781 43.689453 L 41.84375 56.181641 C 41.83726 56.29931 41.826172 56.416001 41.826172 56.535156 C 41.826172 60.095433 44.762004 63.03125 48.322266 63.03125 C 51.882528 63.03125 54.818359 60.095433 54.818359 56.535156 C 54.818359 56.140958 54.775875 55.756609 54.707031 55.380859 L 77.294922 34.919922 L 77.314453 28.193359 z M 48.322266 54.816406 C 49.298631 54.816406 50.035156 55.558791 50.035156 56.535156 C 50.035156 57.511522 49.298631 58.255859 48.322266 58.255859 C 47.345904 58.255859 46.601563 57.511522 46.601562 56.535156 C 46.601562 55.558791 47.345904 54.816406 48.322266 54.816406 z "
       style="color:#000000;font-style:normal;font-variant:normal;font-weight:normal;font-stretch:normal;font-size:medium;line-height:normal;font-family:sans-serif;font-variant-ligatures:normal;font-variant-position:normal;font-variant-caps:normal;font-variant-numeric:normal;font-variant-alternates:normal;font-feature-settings:normal;text-indent:0;text-align:start;text-decoration:none;text-decoration-line:none;text-decoration-style:solid;text-decoration-color:#000000;letter-spacing:normal;word-spacing:normal;text-transform:none;writing-mode:lr-tb;direction:ltr;text-orientation:mixed;dominant-baseline:auto;baseline-shift:baseline;text-anchor:start;white-space:normal;shape-padding:0;clip-rule:nonzero;display:inline;overflow:visible;visibility:visible;opacity:1;isolation:auto;mix-blend-mode:normal;color-interpolation:sRGB;color-interpolation-filters:linearRGB;solid-color:#000000;solid-opacity:1;vector-effect:none;fill:#000000;fill-opacity:1;fill-rule:nonzero;stroke:none;stroke-width:10;stroke-linecap:round;stroke-linejoin:bevel;stroke-miterlimit:4;stroke-dasharray:none;stroke-dashoffset:0;stroke-opacity:1;color-rendering:auto;image-rendering:auto;shape-rendering:auto;text-rendering:auto;enable-background:accumulate" />
  </g>
</svg>
